<?xml version="1.0" encoding="UTF-8"?>
<svg id="Layer_1" xmlns="http://www.w3.org/2000/svg" version="1.1" viewBox="0 0 145 24">
  <!-- Generator: Adobe Illustrator 29.0.1, SVG Export Plug-In . SVG Version: 2.1.0 Build 192)  -->
  <path d="M9.2,1.1C3.7,1.1.1,5,.1,10s3.6,9,9,9,9-3.9,9-9S14.6,1.1,9.2,1.1ZM9.2,15c-2.7,0-4.7-2.1-4.7-5s1.9-5,4.7-5,4.7,2.1,4.7,5-1.9,5-4.7,5Z"/>
  <path d="M27.2,5.4c-1.9,0-3.1.9-3.5,1.3v-1h-3.8v17.5h4.1v-5.6c.3.3,1.5,1.3,3.4,1.3,3.7,0,6.1-2.8,6.1-6.8s-2.6-6.8-6.3-6.8ZM26.6,15.4c-1.6,0-2.8-1.2-2.8-3.2s1-3.1,2.8-3.1,2.8,1.2,2.8,3.1-1.1,3.2-2.8,3.2Z"/>
  <path d="M40.7,5.4c-3.8,0-6.3,3-6.3,6.8s2.6,6.7,6.9,6.7,5.1-2.1,5.5-2.9l-2.7-2.1c-.2.4-1.2,1.4-2.7,1.4s-2.6-1-2.7-2.1h8.5c0-.3,0-.6,0-.8,0-4.4-2.2-7-6.3-7ZM38.7,10.7c0-.9.7-1.9,2.1-1.9s2,.9,2.1,1.9h-4.2Z"/>
  <path d="M55.7,5.4c-1.6,0-2.8.9-3.2,1.6v-1.3h-4v12.9h4.1v-7.7c0-1,.6-1.8,1.8-1.8s1.7.6,1.7,1.8v7.7h4.1v-7.2c0-2.6-.4-6.1-4.4-6.1Z"/>
  <path d="M68.7,9.1c1,0,1.9.4,2.6,1l1.1-3.5c-.9-.6-2.2-1.2-3.8-1.2-4,0-7,2.8-7,6.8s2.9,6.8,7,6.8,2.9-.6,3.8-1.2l-1.1-3.4c-.6.5-1.5.9-2.4.9-1.9,0-3.2-1.3-3.2-3.2s1.1-3.1,3-3.1Z"/>
  <path d="M81.1,5.4c-1.6,0-2.7.9-3.2,1.6V.9h-4.1v17.8h4.1v-7.7c0-1,.7-1.8,1.8-1.8s1.7.6,1.7,1.8v7.7h4.1v-7.2c0-2.6-.4-6.1-4.4-6.1Z"/>
  <path d="M92.9,5.4c-2.1,0-3.9.7-5.3,1.6l1.5,2.8c1-.5,2.1-.8,3.2-.8s2,.6,2,1.4v.5c-.5-.2-1.4-.5-2.5-.5-3.1,0-5,1.7-5,4.3s2.3,4.3,4.8,4.3,2.3-.4,2.9-1l.2.7h3.7v-8c0-3-1.1-5.2-5.6-5.2ZM92.7,15.8c-1,0-1.7-.5-1.7-1.3s.7-1.4,1.7-1.4,1.7.5,1.7,1.4-.7,1.3-1.7,1.3Z"/>
  <path d="M104.5,7.5v-1.7h-4v12.9h4.1v-5.7c0-1.9.7-3.4,2.7-3.4s.5,0,.7,0v-4.2c-1.6,0-2.8.8-3.4,2Z"/>
  <path d="M118.5,6.8c-.4-.4-1.6-1.3-3.5-1.3-3.7,0-6.3,2.8-6.3,6.8s2.4,6.8,6.1,6.8,3.2-1,3.4-1.3v.3c0,1.6-1.5,1.9-3.1,1.9s-3.2-.6-3.6-.8l-1.2,3.1c1.2.6,3,1.1,4.8,1.1,3.8,0,7.2-1.5,7.2-6.3V5.7h-3.8v1ZM115.6,15.4c-1.7,0-2.8-1.3-2.8-3.2s1.1-3.1,2.8-3.1,2.8,1.4,2.8,3.1-1.2,3.2-2.8,3.2Z"/>
  <path d="M130.1,5.4c-3.8,0-6.3,3-6.3,6.8s2.6,6.7,6.9,6.7,5.1-2.1,5.5-2.9l-2.7-2.1c-.2.4-1.2,1.4-2.7,1.4s-2.6-1-2.7-2.1h8.5c0-.3,0-.6,0-.8,0-4.4-2.2-7-6.3-7ZM128.1,10.7c0-.9.7-1.9,2.1-1.9s2,.9,2.1,1.9h-4.2Z"/>
  <path d="M142.3,5.7c0-.1.1-.3.1-.5,0-.3,0-.5-.3-.7s-.4-.2-.7-.2h-1.1v2.7h.7v-.9h.3l.6.9h.8l-.6-1c.2,0,.3-.2.4-.3ZM141.6,5.5c0,0-.2,0-.2,0h-.4v-.6h.5c0,0,.2,0,.2,0,0,0,.1.1.1.2s0,.2-.1.2Z"/>
  <path d="M143.6,4.4c-.2-.4-.5-.7-.9-.9-.4-.2-.9-.3-1.4-.3s-1,.1-1.4.3c-.4.2-.7.5-1,.9-.2.4-.3.9-.3,1.4s.1,1,.3,1.4c.2.4.5.7,1,.9.4.2.9.3,1.4.3s1-.1,1.4-.3c.4-.2.7-.5.9-.9.2-.4.3-.9.3-1.4s-.1-1-.3-1.4ZM142.6,7.1c-.3.3-.8.5-1.4.5s-1-.2-1.4-.5c-.4-.3-.5-.8-.5-1.4s.2-1.1.5-1.4c.4-.3.8-.5,1.4-.5s1,.2,1.4.5c.3.3.5.8.5,1.4s-.2,1.1-.5,1.4Z"/>
</svg>